Video
ID                               : 1
Format                           : AVC
Format/Info                      : Advanced Video Codec
Format profile                   : High@L4.0
Format settings, CABAC           : Yes
Format settings, ReFrames        : 8 frames
Muxing mode                      : Container profile=Unknown@4.0
Codec ID                         : V_MPEG4/ISO/AVC
Duration                         : 2h 8mn
Bit rate                         : 709 Kbps
Width                            : 1 280 pixels
Height                           : 720 pixels
Display aspect ratio             : 16:9
Frame rate                       : 23.976 fps
Color space                      : YUV
Chroma subsampling               : 4:2:0
Bit depth                        : 8 bits
Scan type                        : Progressive
Bits/(Pixel*Frame)               : 0.032
Stream size                      : 651 MiB (90%)
Title                            : scOrp @

Audio
ID                               : 1
Format                           : MPEG Audio
Format version                   : Version 2
Format profile                   : Layer 3
Mode                             : Joint stereo
Mode extension                   : MS Stereo
Codec ID                         : A_MPEG/L3
Codec ID/Hint                    : MP3
Duration                         : 2h 8mn
Bit rate mode                    : Constant
Bit rate                         : 64.0 Kbps
Channel(s)                       : 2 channels
Sampling rate                    : 24.0 KHz
Video delay                      : 12ms
Stream size                      : 58.8 MiB (8%)
Title                            : Hindi Audio by Arihant
Language                         : Hindi